#N canvas 487 354 450 300 10;
#X obj 21 15 inlet;
#X obj 21 267 outlet~;
#X obj 401 15 inlet~;
#X obj 21 247 *~;
#X obj 61 37 delay 1;
#X msg 21 37 stop;
#X msg 61 59 0 4;
#X obj 111 37 delay 5;
#X obj 21 129 vline~;
#X obj 71 168 snapshot~;
#X obj 71 129 metro 500;
#X obj 71 106 tgl 15 0 empty empty empty 17 7 0 10 -262144 -1 -1 0
1;
#X floatatom 71 190 5 0 0 0 - - -, f 5;
#X msg 111 59 0.5 5 \, 0 400 50;
#X connect 0 0 4 0;
#X connect 0 0 5 0;
#X connect 0 0 7 0;
#X connect 2 0 3 1;
#X connect 3 0 1 0;
#X connect 4 0 6 0;
#X connect 5 0 8 0;
#X connect 6 0 8 0;
#X connect 7 0 13 0;
#X connect 8 0 3 0;
#X connect 8 0 9 0;
#X connect 9 0 12 0;
#X connect 10 0 9 0;
#X connect 11 0 10 0;
#X connect 13 0 8 0;
