#N canvas 28 15 457 317 10;
#X obj 70 9 r trigger;
#N canvas 0 22 450 278 (subpatch) 0;
#X array scale 11 float 3;
#A 0 0 3 5 7 10 12 15 17 19 22 24;
#X coords 0 24 11 0 200 140 1 0 0;
#X restore 231 153 graph;
#X obj 230 9 loadbang;
#X obj 52 11 bng 15 250 50 0 empty empty empty 17 7 0 10 -262144 -1
-1;
#X obj 71 279 dac~;
#X obj 71 256 *~ 0.5;
#X obj 52 141 voice;
#X msg 230 31 \; scale 0 0 3 5 7 10 12 15 17 19 22 24;
#X obj 70 31 selector;
#X obj 88 141 voice;
#X obj 124 141 voice;
#X obj 160 141 voice;
#X connect 0 0 8 0;
#X connect 2 0 7 0;
#X connect 3 0 8 0;
#X connect 5 0 4 0;
#X connect 5 0 4 1;
#X connect 6 0 5 0;
#X connect 8 0 6 0;
#X connect 8 1 9 0;
#X connect 8 2 10 0;
#X connect 8 3 11 0;
#X connect 9 0 5 0;
#X connect 10 0 5 0;
#X connect 11 0 5 0;
