#N canvas 945 17 450 300 10;
#X obj 10 8 inlet;
#X obj 10 48 f;
#X obj 40 48 + 1;
#X obj 10 29 bng 15 250 50 0 empty empty empty 17 7 0 10 -262144 -1
-1;
#X obj 10 70 % 4;
#X floatatom 10 92 5 0 0 0 - - -, f 5;
#X obj 10 111 select 0 1 2 3;
#X obj 10 133 outlet;
#X obj 60 133 outlet;
#X obj 110 133 outlet;
#X obj 160 133 outlet;
#X connect 0 0 3 0;
#X connect 1 0 2 0;
#X connect 1 0 4 0;
#X connect 2 0 1 1;
#X connect 3 0 1 0;
#X connect 4 0 5 0;
#X connect 5 0 6 0;
#X connect 6 0 7 0;
#X connect 6 1 8 0;
#X connect 6 2 9 0;
#X connect 6 3 10 0;
